<?xml version="1.0" encoding="utf-8"?>
<svg xmlns="http://www.w3.org/2000/svg" width="336" height="165" viewBox="0 0 336 165" fill="none">
<path fill-rule="evenodd" clip-rule="evenodd" d="M223.4 5.20005C236.2 28.3001 233.8 56.8001 217.3 77.4001H182.5L193.2 58.5H179L195.8 29H210.1L223.4 5.20005ZM154.7 77.4001H119.2C102.5 56.8001 100 28.1 113.1 5.00005L136.1 45L161.5 0.800049H198.8L154.7 77.4001Z" fill="#000E9C"/>
<path d="M0.399994 134.3C0.399994 113.9 10.6 104.1 27.3 104.1C44 104.1 54.2 113.9 54.2 134.3C54.2 154.5 44 164.4 27.3 164.4C10.6 164.5 0.399994 154.5 0.399994 134.3ZM6.49999 134.3C6.49999 151.1 14.2 159.1 27.3 159.1C40.5 159.1 48.1 151.1 48.1 134.3C48.1 117.4 40.4 109.4 27.3 109.4C14.1 109.4 6.49999 117.4 6.49999 134.3Z" fill="#000E9C"/>
<path d="M98.1 106.5C98.4 105.8 99.2 104.6 100.9 104.6C102.5 104.6 103.8 105.9 103.8 107.5C103.8 108 103.6 108.5 103.5 108.8L83.4 162C83 163.2 81.8 164 80.6 164C79.5 164 78.3 163.2 77.8 162L57.6 108.9C57.5 108.6 57.3 108.1 57.3 107.6C57.3 106 58.6 104.7 60.2 104.7C61.8 104.7 62.7 105.9 63 106.6L80.5 152.9L98.1 106.5Z" fill="#000E9C"/>
<path d="M116 136.2V161C116 162.6 114.7 163.9 113.1 163.9C111.5 163.9 110.2 162.5 110.2 161V107.5C110.2 105.9 111.5 104.6 113.1 104.6C114.7 104.6 116 106 116 107.5V130.8H146V107.5C146 105.9 147.3 104.6 148.9 104.6C150.5 104.6 151.8 106 151.8 107.5V161C151.8 162.6 150.5 163.9 148.9 163.9C147.3 163.9 146 162.5 146 161V136.2H116Z" fill="#000E9C"/>
<path d="M179.5 122.9C187.2 122.9 191.4 126.9 192.8 128.8C193.2 129.4 193.4 129.8 193.4 130.4C193.4 131.9 192.3 132.9 190.9 132.9C190 132.9 189.4 132.6 188.8 131.9C187.5 130.4 185.2 127.9 179.5 127.9C171.6 127.9 167.4 133 167.4 143.6C167.4 154.4 171.6 159.4 179.5 159.4C184.5 159.4 187.5 157.2 189.5 155.7C190.1 155.3 190.5 155.1 191.1 155.1C192.5 155.1 193.6 156.2 193.6 157.6C193.6 158.4 193.3 159 192.5 159.8C190.6 161.4 186.5 164.5 179.5 164.5C168.4 164.5 161.8 157.9 161.8 143.7C161.7 129.5 168.4 122.9 179.5 122.9Z" fill="#000E9C"/>
<path d="M206.9 104.7V153.9C206.9 157.3 208 158.8 210.3 158.8C211.7 158.8 212.9 159.9 212.9 161.4C212.9 162.9 211.7 164 210.3 164C204.5 164 201.3 160.6 201.3 153.9V104.7C201.3 103.2 202.6 101.9 204.1 101.9C205.7 101.9 206.9 103.2 206.9 104.7Z" fill="#000E9C"/>
<path d="M253.9 143.6C253.9 157.7 247 164.4 235.8 164.4C224.7 164.4 217.7 157.8 217.7 143.6C217.7 129.5 224.7 122.9 235.8 122.9C247 122.9 253.9 129.5 253.9 143.6ZM248.3 143.6C248.3 132.7 243.7 127.9 235.8 127.9C227.9 127.9 223.3 132.7 223.3 143.6C223.3 154.6 227.9 159.4 235.8 159.4C243.7 159.4 248.3 154.6 248.3 143.6Z" fill="#000E9C"/>
<path d="M267.1 126.2V148.7C267.1 154.3 268.9 159.1 277.6 159.1C286.3 159.1 288.1 154.3 288.1 148.7V126.2C288.1 124.6 289.4 123.4 290.9 123.4C292.4 123.4 293.6 124.6 293.6 126.2V148.7C293.6 156.9 290.9 164.4 277.6 164.4C264.3 164.4 261.6 156.9 261.6 148.7V126.2C261.6 124.6 262.8 123.4 264.4 123.4C265.8 123.5 267.1 124.7 267.1 126.2Z" fill="#000E9C"/>
<path d="M330.4 128.5V104.6C330.4 103 331.6 101.8 333.2 101.8C334.8 101.8 336 103 336 104.6V147.3C336 158.7 328.9 164.3 319.1 164.3C308 164.3 301.4 157.7 301.4 143.5C301.4 129.4 307.6 122.8 318.7 122.8C324.2 122.9 328.4 125.8 330.4 128.5ZM330.4 135.5C330.4 135.5 327.1 127.9 319 127.9C311.2 127.9 306.9 133 306.9 143.6C306.9 154.4 311.1 159.4 319 159.4C325.6 159.4 330.4 155.6 330.4 147.4V135.5Z" fill="#000E9C"/>
</svg>